<svg xmlns="http://www.w3.org/2000/svg" viewBox="0 0 110.01 89.78"><defs><style>.cls-1{fill:#49ff78;}</style></defs><title>menu</title><g id="Calque_2" data-name="Calque 2"><g id="Calque_2-2" data-name="Calque 2"><g id="menu"><path class="cls-1" d="M102.7,7.25a25.15,25.15,0,0,0-35.33,0L55,19.56,42.63,7.25a25.13,25.13,0,0,0-35.32,0,24.78,24.78,0,0,0,0,35.15L54.92,89.78,55,89.7l.08.08L102.7,42.4A24.79,24.79,0,0,0,102.7,7.25ZM90.41,30.18,78,42.48l-1.76,1.75-21.2,21.1L55,65.25l-.08.08-21.2-21.1L32,42.48,19.59,30.18a7.59,7.59,0,0,1,10.76-10.7l12.36,12.3,1.77,1.76L55,44,65.53,33.54l1.76-1.76,12.37-12.3a7.69,7.69,0,0,1,10.75,0,7.56,7.56,0,0,1,0,10.7Z"/></g></g></g></svg>