<svg xmlns="http://www.w3.org/2000/svg" viewBox="0 0 110.01 89.78"><path d="M102.7 7.25a25.15 25.15 0 0 0-35.33 0L55 19.56 42.63 7.25a25.13 25.13 0 0 0-35.32 0 24.78 24.78 0 0 0 0 35.15l47.61 47.38.08-.08.08.08L102.7 42.4a24.79 24.79 0 0 0 0-35.15zM90.41 30.18L78 42.48l-1.76 1.75-21.2 21.1-.04-.08-.08.08-21.2-21.1L32 42.48l-12.41-12.3a7.59 7.59 0 0 1 10.76-10.7l12.36 12.3 1.77 1.76L55 44l10.53-10.46 1.76-1.76 12.37-12.3a7.69 7.69 0 0 1 10.75 0 7.56 7.56 0 0 1 0 10.7z" fill="#49ff78" data-name="Calque 2"/></svg>